<?xml version="1.0" encoding="UTF-8"?><svg id="Calque_2" xmlns="http://www.w3.org/2000/svg" viewBox="0 0 2139.31 613.49"><defs><style>.cls-1{opacity:.6;}.cls-1,.cls-2{isolation:isolate;}.cls-1,.cls-2,.cls-3{fill:#8ec6dd;}.cls-2{opacity:.8;}</style></defs><g id="Calque_1-2"><path class="cls-3" d="M9.29-173.95C82.14-92.38,210.06,28.08,400.08,99.45c254.07,95.42,504.52,60.03,714.24,30.39,316.5-44.73,362.01-118.78,539.81-78.01,217.62,49.9,314.63,194.16,395.29,149.96,88.33-48.4,116.03-304.49,21.86-409.71-26.83-29.98-2028.2-34.98-2028.2-34.98-11.26,22.98-22.52,45.97-33.78,68.95Z"/><path class="cls-2" d="M-4.62-113.99C57.56-42.42,166.6,64.67,329.78,138c294.72,132.46,600.88,80.57,770.63,51.8,324.99-55.08,388.17-153.38,574.13-101.69,200.5,55.74,284.79,210.49,360.97,173.64,79.43-38.43,134.43-283.92,21.86-409.71-26.83-29.98-2028.2-34.98-2028.2-34.98-11.26,22.98-22.52,45.97-33.78,68.95Z"/><path class="cls-1" d="M-4.62-35.05C63.07,29.94,169.8,117.74,318.44,185.62c350.65,160.15,695.55,100.39,781.96,83.11,317.58-63.48,383.37-202.06,574.38-149.89,205.76,56.2,284.02,253.93,360.72,221.84,74.17-31.02,137-281.06,21.86-409.71C2030.53-99,29.16-104,29.16-104,17.9-81.02,6.64-58.04-4.62-35.05Z"/></g></svg>